:SAMPLES-PER-SECOND 30
:FULLY-SPECIFIED
:DEGREES
65
root  40.4334 39.2068 20.5861 44.3201 -84.9595 -42.7004
RightUpLeg  -19.582 -8.75554 8.45348
RightLeg  24.0608 -3.92546 -2.10592
RightFoot  -12.7546 -0.0673594 1.44318
RightToes  2.32829e-010 0 -3.6325e-017
Spine  12.118 -3.72839 6.62194
Spine1  2.21943 -3.45528 2.97365
HEad  -11.1665 3.24378 -5.40744
LeftShoulder1  7.49462 -11.7445 -42.7146
LeftArm  7.56378 12.3328 -32.3675
LeftForeArm  -179.654 -60.6119 -163.352
LeftHand  -0.244104 0.0205437 5.32207
RightShoulder  4.48354 8.61073 31.0658
RightArm  -5.78099 -49.0918 39.9014
RightForeArm  138.974 68.674 151.155
RightHand  0.156175 -9.40306 -5.71444
LeftUpLeg  -2.69812 4.49887 2.41707
LeftLeg  52.8526 3.42567 5.34041
LeftFoot  3.32351 0.630269 -5.05186
LeftToes  -1.53708e-010 -3.96652e-011 -3.29181e-011
66
root  38.505 38.3073 20.7586 45.701 -84.069 -45.1999
RightUpLeg  -19.0617 -8.20645 9.60598
RightLeg  30.8785 -5.83295 -4.02187
RightFoot  -14.4942 -0.219283 -4.13658
RightToes  2.32829e-010 0 -3.6325e-017
Spine  12.9022 -3.30033 9.41993
Spine1  2.16613 -2.37808 2.07076
HEad  -12.1458 1.46395 -4.80533
LeftShoulder1  7.43472 -11.2946 -43.7191
LeftArm  5.86728 11.6848 -33.4492
LeftForeArm  -179.382 -62.2646 -162.232
LeftHand  -0.244104 0.0205437 5.32207
RightShoulder  4.90934 8.82936 33.8381
RightArm  -2.72643 -42.9144 34.7465
RightForeArm  134.963 69.3593 149.625
RightHand  0.162922 -9.27361 -6.09906
LeftUpLeg  -7.87214 2.51131 4.20126
LeftLeg  64.9715 3.26739 8.29899
LeftFoot  0.872796 0.433554 -4.08623
LeftToes  -1.53708e-010 -3.96652e-011 -3.29181e-011
67
root  36.599 37.4692 20.9629 52.9918 -82.8584 -53.1987
RightUpLeg  -18.6768 -7.54887 11.0814
RightLeg  38.0251 -6.533 -5.71972
RightFoot  -18.6674 -0.532751 -6.51998
RightToes  2.32829e-010 0 -3.6325e-017
Spine  13.51 -3.12476 13.0999
Spine1  2.35206 -1.46333 0.779924
HEad  -14.4735 0.459535 -4.21725
LeftShoulder1  7.71317 -11.1048 -46.0255
LeftArm  2.74743 12.7017 -33.0875
LeftForeArm  178.594 -64.2854 -160.476
LeftHand  -0.244104 0.0205437 5.32207
RightShoulder  5.77391 9.34888 38.8321
RightArm  1.03232 -32.5277 27.4668
RightForeArm  127.992 70.6738 146.486
RightHand  0.198613 -8.69513 -8.277
LeftUpLeg  -14.0943 0.953467 6.6836
LeftLeg  74.0687 2.43196 10.6497
LeftFoot  -1.25968 0.18617 -2.00849
LeftToes  -1.53708e-010 -3.96652e-011 -3.29181e-011
68
root  34.6144 36.9813 21.1475 58.1971 -82.1182 -58.7711
RightUpLeg  -16.2961 -8.21775 11.6362
RightLeg  41.4308 -6.26416 -6.19119
RightFoot  -23.7848 -0.752104 -5.45561
RightToes  2.32829e-010 0 -3.6325e-017
Spine  13.4039 -2.76692 15.9859
Spine1  3.22269 -0.419961 -0.752852
HEad  -15.8101 -0.390105 -4.17295
LeftShoulder1  8.29625 -11.4392 -48.4581
LeftArm  -0.556092 16.6508 -31.3378
LeftForeArm  174.483 -65.3399 -159.141
LeftHand  -0.244104 0.0205437 5.32207
RightShoulder  6.47899 9.86217 42.2129
RightArm  1.79946 -21.581 25.5403
RightForeArm  125.236 71.9557 143.64
RightHand  0.185984 -7.72339 -10.5488
LeftUpLeg  -20.3177 -0.0870244 8.36348
LeftLeg  78.5727 1.59621 11.0075
LeftFoot  -3.47237 0.0270637 -0.100833
LeftToes  -1.53708e-010 -3.96652e-011 -3.29181e-011
69
root  32.3828 37.0622 21.2538 56.1647 -83.0831 -56.734
RightUpLeg  -11.1641 -9.1509 9.83686
RightLeg  39.5514 -5.63413 -5.2742
RightFoot  -26.6223 -0.727377 -4.06194
RightToes  2.32829e-010 0 -3.6325e-017
Spine  12.3922 -1.53929 16.5143
Spine1  4.03476 1.28157 -2.90377
HEad  -15.0209 -2.38685 -3.30984
LeftShoulder1  8.57405 -11.7165 -49.176
LeftArm  -1.64765 22.8664 -29.084
LeftForeArm  171.526 -64.3525 -159.682
LeftHand  -0.244104 0.0205437 5.32207
RightShoulder  6.47779 9.89824 42.0582
RightArm  0.375732 -15.363 30.5611
RightForeArm  132.534 71.2427 146.047
RightHand  0.145254 -7.20974 -10.8668
LeftUpLeg  -24.9687 -0.290066 7.57668
LeftLeg  77.3786 1.63594 10.0805
LeftFoot  -5.9553 0.0325353 -0.0175474
LeftToes  -1.53708e-010 -3.96652e-011 -3.29181e-011
70
root  29.8961 37.6912 21.2952 38.0646 -85.2442 -38.1869
RightUpLeg  -4.55253 -9.45313 5.94581
RightLeg  34.0343 -4.67116 -3.66531
RightFoot  -25.64 -0.566522 -3.14139
RightToes  2.32829e-010 0 -3.6325e-017
Spine  10.8061 0.428119 14.8911
Spine1  3.84665 3.5277 -5.9699
HEad  -12.0091 -5.8162 -1.11764
LeftShoulder1  8.18594 -11.4111 -47.8872
LeftArm  0.257581 29.2009 -26.4356
LeftForeArm  171.312 -61.7542 -161.72
LeftHand  -0.244104 0.0205437 5.32207
RightShoulder  6.04822 9.41744 40.6347
RightArm  -0.202927 -14.2784 37.5611
RightForeArm  144.358 68.0483 152.627
RightHand  0.152397 -7.73326 -9.0988
LeftUpLeg  -27.2628 0.459659 4.31012
LeftLeg  70.2419 2.85133 9.58441
LeftFoot  -8.07514 0.0939487 -1.58286
LeftToes  -1.53708e-010 -3.96652e-011 -3.29181e-011
71
root  27.2962 38.6427 21.3598 0.0938974 -86.1793 0.756909
RightUpLeg  1.62412 -10.0473 1.42994
RightLeg  27.5755 -2.85499 -1.87581
RightFoot  -20.903 -0.195005 -0.423029
RightToes  2.32829e-010 0 -3.6325e-017
Spine  8.70735 2.34436 12.3811
Spine1  3.00845 5.44739 -9.09059
HEad  -7.23354 -9.47423 1.3375
LeftShoulder1  7.50691 -10.7297 -45.9825
LeftArm  2.77901 34.6638 -23.6993
LeftForeArm  172.599 -58.7753 -163.828
LeftHand  -0.244104 0.0205437 5.32207
RightShoulder  5.77742 8.92578 40.3268
RightArm  2.44202 -14.9808 41.0954
RightForeArm  152.143 64.2208 157.782
RightHand  0.130152 -8.49477 -6.25937
LeftUpLeg  -27.5982 2.26063 0.0548958
LeftLeg  58.0601 5.29098 9.56043
LeftFoot  -8.99982 0.110675 -2.7138
LeftToes  -1.53708e-010 -3.96652e-011 -3.29181e-011
72
root  24.7392 39.5882 21.5084 -24.5988 -85.1663 26.6456
RightUpLeg  5.92221 -11.9626 -2.47158
RightLeg  23.1171 -0.0258361 -0.22088
RightFoot  -12.5272 -0.0585559 4.20136
RightToes  2.32829e-010 0 -3.6325e-017
Spine  6.0888 3.53023 10.1833
Spine1  2.90912 6.4651 -11.0066
HEad  -2.77785 -12.0876 3.49801
LeftShoulder1  7.12613 -10.3558 -44.7859
LeftArm  2.91586 39.6729 -21.9443
LeftForeArm  173.744 -56.2504 -165.358
LeftHand  -0.244104 0.0205437 5.32207
RightShoulder  5.74175 8.80812 40.4697
RightArm  7.79116 -15.0427 40.865
RightForeArm  157.924 61.3962 160.72
RightHand  0.00942609 -8.62622 -1.98705
LeftUpLeg  -26.6663 5.30028 -3.81839
LeftLeg  43.0981 7.46894 7.89194
LeftFoot  -9.22797 0.103545 -2.59076
LeftToes  -1.53708e-010 -3.96652e-011 -3.29181e-011
